<svg width="369" height="294" viewBox="0 0 369 294" fill="none" xmlns="http://www.w3.org/2000/svg">
<path d="M0 35.332C0 16.8215 16.6056 2.68716 34.8505 5.8111C70.5468 11.9231 106.516 18.797 143.599 28.6514C192.769 41.7861 243.896 60.1611 264.702 91.3986C285.508 122.636 275.994 166.668 288.353 202.601C292.522 214.699 299.17 225.875 307.459 236.44C324.89 258.656 312.8 294 284.562 294H30C13.4315 294 0 280.569 0 264L0 35.332Z" fill="#FFF1EB"/>
<path d="M0 94.1795C0 75.6529 16.6372 61.49 34.8871 64.6802C61.1607 69.273 87.6573 74.4754 114.879 81.7347C154.18 92.2153 195.081 106.915 211.797 131.892C228.424 156.936 220.778 192.121 230.647 220.84C232.199 225.354 234.183 229.709 236.531 233.928C250.266 258.606 238.966 294 210.724 294H30C13.4314 294 0 280.569 0 264L0 94.1795Z" fill="#FFDCC8"/>
<path d="M0 152.975C0 134.45 16.6442 120.237 34.8688 123.559C51.7145 126.631 68.7197 130.154 86.1593 134.818C115.679 142.644 146.355 153.737 158.803 172.453C171.34 191.168 165.561 217.642 173.03 239.147C181.043 262.572 172.058 294 147.3 294H30C13.4315 294 0 280.569 0 264L0 152.975Z" fill="#FFC6A6"/>
<path d="M0 211.793C0 193.262 16.6799 178.928 34.8409 182.614C42.2909 184.125 49.8116 185.826 57.4395 187.833C77.0899 193.074 97.5405 200.492 105.899 212.946C114.168 225.468 110.433 243.094 115.324 257.454C120.725 273.03 114.691 294 98.2054 294H30C13.4314 294 0 280.569 0 264L0 211.793Z" fill="#FFB185"/>
<path d="M0 264.494C0 249.156 13.8826 237.029 28.7198 240.917C38.5894 243.571 48.8147 247.246 52.9048 253.507C57.0839 259.7 55.2166 268.547 57.7063 275.693C60.3182 283.542 57.3662 294 49.0943 294H19.372C8.67313 294 0 285.327 0 274.628L0 264.494Z" fill="#FFA675"/>
</svg>
