<svg width="354" height="307" viewBox="0 0 354 307" fill="none" xmlns="http://www.w3.org/2000/svg">
<path d="M36.3758 307C17.5162 307 3.25495 289.789 7.03498 271.312C11.5466 249.259 16.651 226.609 23.5071 202.321C34.0992 164.728 48.7795 123.226 82.6929 99.4907C116.606 75.755 169.753 69.7856 218.161 56.2122C250.636 47.0586 281.02 34.4827 310.689 20.759C330.817 11.4482 354 25.853 354 48.0303V277C354 293.568 340.569 307 324 307H36.3758Z" fill="#FFF1EB"/>
<path d="M107.168 307C88.3111 307 74.0093 289.784 77.8938 271.331C81.1377 255.922 84.8271 240.071 89.5683 223.215C98.0234 193.225 109.823 159.967 136.954 140.993C164.085 122.018 206.639 117.257 245.384 106.384C268.188 99.943 289.672 91.4092 310.614 82C330.843 72.9108 354 87.2532 354 109.431V277C354 293.569 340.568 307 324 307H107.168Z" fill="#FFDCC8"/>
<path d="M177.981 307C159.12 307 144.748 289.76 148.891 271.36C150.864 262.598 153.082 253.593 155.723 244.178C162.041 221.651 170.868 196.707 191.216 182.494C211.564 168.21 243.433 164.657 272.515 156.484C285.662 152.822 298.221 148.201 310.457 143.055C330.9 134.457 354 148.653 354 170.83V277C354 293.568 340.569 307 324 307H177.981Z" fill="#FFC6A6"/>
<path d="M248.768 307C229.911 307 215.376 289.72 220.089 271.461C220.625 269.384 221.188 267.279 221.784 265.143C226.058 250.077 231.912 233.448 245.477 223.996C259.042 214.474 280.32 212.128 299.646 206.656C303.165 205.678 306.621 204.596 310.024 203.43C331.004 196.243 354 210.053 354 232.23V277C354 293.568 340.568 307 324 307H248.768Z" fill="#FFB185"/>
<path d="M304.7 307C293.557 307 284.897 296.756 287.939 286.036C289.983 278.574 292.956 270.259 299.739 265.498C306.521 260.737 317.114 259.528 326.869 256.828C339.946 253.173 354 261.428 354 275.006V283.393C354 296.431 343.431 307 330.394 307H304.7Z" fill="#FFA675"/>
</svg>
