<svg width="200" height="200" viewBox="0 0 200 200" fill="none" xmlns="http://www.w3.org/2000/svg">
<g clip-path="url(#clip0_21_1028)">
<path d="M300.024 -167.237C320.544 -138.877 317.744 -86.6775 317.144 -48.7575C316.584 -10.7975 318.264 12.8426 337.464 47.6026C356.664 82.3626 393.384 128.203 378.184 138.803C362.984 149.443 295.864 124.843 256.184 134.883C216.464 144.883 204.224 189.483 188.624 195.283C173.024 201.043 154.064 167.963 119.824 154.803C85.5842 141.643 36.0642 148.403 22.3842 132.003C8.74421 115.603 30.9442 76.0425 55.2642 50.5625C79.5442 25.0825 105.984 13.6026 111.424 -17.0374C116.864 -47.7174 101.304 -97.5575 111.224 -132.037C121.144 -166.517 156.544 -185.597 196.144 -192.877C235.744 -200.157 279.544 -195.597 300.024 -167.237Z" stroke="#FFA675" stroke-width="6"/>
</g>
<defs>
<clipPath id="clip0_21_1028">
<rect width="200" height="200" fill="white"/>
</clipPath>
</defs>
</svg>
