<svg width="162" height="189" viewBox="0 0 162 189" fill="none" xmlns="http://www.w3.org/2000/svg">
<path d="M114.627 -145.353C134.027 -134.033 140.867 -101.113 146.707 -73.4325C152.547 -45.7925 157.347 -23.3925 158.387 -0.392527C159.427 22.6075 156.707 46.2075 145.307 64.2475C133.947 82.2875 113.907 94.7675 93.4667 120.527C73.0267 146.247 52.1867 185.207 31.1867 185.487C10.2267 185.727 -10.9333 147.287 -42.0533 127.727C-73.1733 108.167 -114.253 107.487 -135.973 89.1675C-157.653 70.8875 -159.973 34.9275 -158.053 0.127481C-156.133 -34.7125 -150.053 -68.4725 -138.613 -104.553C-127.173 -140.633 -110.413 -179.073 -81.2133 -184.713C-51.9733 -190.393 -10.3333 -163.313 26.4667 -154.873C63.2667 -146.433 95.2267 -156.673 114.627 -145.353Z" stroke="#FFA675" stroke-width="6"/>
</svg>
